<?xml version="1.0" encoding="utf-8"?>
<!-- Generator: Adobe Illustrator 19.0.0, SVG Export Plug-In . SVG Version: 6.00 Build 0)  -->
<svg version="1.1" id="Capa_1" xmlns="http://www.w3.org/2000/svg" xmlns:xlink="http://www.w3.org/1999/xlink" x="0px" y="0px"
	 viewBox="0 0 308 33.7" style="enable-background:new 0 0 308 33.7;" xml:space="preserve">
<g id="XMLID_7_">
	<path id="XMLID_29_" d="M159.1,12.9h-8.4v20.4h4.5v-6.1h3.4c4.6,0,8.3-2.5,8.3-7.2V20C166.9,15.8,164,12.9,159.1,12.9z M162.4,20.1
		c0,1.8-1.3,3.1-3.6,3.1h-3.6V17l3.5,0C161,17,162.4,18.1,162.4,20.1L162.4,20.1z"/>
	<path id="XMLID_47_" d="M177.4,12.8l-8.8,20.6h4.6l1.9-4.6h8.6l1.9,4.6h4.7l-8.8-20.6H177.4z M176.7,24.8l2.7-6.6l2.7,6.6H176.7z"
		/>
	<path id="XMLID_50_" d="M212.2,19.7L212.2,19.7c0-2-0.6-3.6-1.8-4.7c-1.3-1.3-3.4-2.1-6-2.1h-9.3v20.4h4.5v-6.5l3.5,0l0.1,0
		l4.4,6.5h5.2l-5-7.3C210.4,25.1,212.2,23,212.2,19.7z M207.6,20c0,1.7-1.3,2.9-3.4,2.9h-4.6l0-5.9l4.5,0
		C206.3,17,207.6,18,207.6,20L207.6,20z"/>
	<path id="XMLID_53_" d="M235,19.7L235,19.7c0-2-0.6-3.6-1.8-4.7c-1.3-1.3-3.4-2.1-6-2.1H218l0,20.4h4.5v-6.5h3.5h0.1l4.4,6.5h5.3
		l-5-7.3C233.2,25.1,235,23,235,19.7z M230.5,20c0,1.7-1.3,2.9-3.4,2.9l-4.6,0V17l4.5,0C229.1,17,230.5,18,230.5,20L230.5,20z"/>
	<path id="XMLID_56_" d="M247.9,12.8l-8.8,20.6h4.6l1.9-4.6h8.6l1.9,4.6h4.7L252,12.8L247.9,12.8z M247.2,24.8l2.7-6.6l2.7,6.6
		L247.2,24.8z"/>
	<path id="XMLID_57_" d="M274.1,25.5l4.5,0v2.9c-1.1,0.8-2.6,1.2-4.2,1.2c-3.6,0-6.2-2.7-6.2-6.5v-0.1c0-3.5,2.6-6.4,5.9-6.4
		c2.4,0,3.8,0.8,5.3,2.1l2.8-3.4c-2.1-1.8-4.4-2.8-8-2.8c-6.2,0-10.7,4.8-10.7,10.6v0.1c0,6,4.4,10.5,10.7,10.5
		c3.7,0,6.6-1.5,8.7-3.2v-8.9h-8.9V25.5z"/>
	<path id="XMLID_60_" d="M299.2,12.8l-4.1,0l-8.8,20.6h4.6l1.9-4.6h8.6l1.9,4.6h4.7L299.2,12.8z M294.4,24.8l2.7-6.6l2.7,6.6H294.4z
		"/>
	<polygon id="XMLID_61_" points="176.2,8.2 179.5,5 182.7,8.2 183.5,7.3 180.3,4.1 183.5,0.9 182.7,0 179.5,3.2 176.2,0 175.4,0.9 
		178.6,4.1 175.4,7.3 	"/>
	<path id="XMLID_62_" d="M10.6,29.5c-3.5,0-5.9-2.9-5.9-6.4v-0.1c0-3.5,2.5-6.4,5.9-6.4c2,0,3.6,0.9,5.2,2.3l2.9-3.3
		c-1.9-1.9-4.2-3.1-8-3.1C4.4,12.6,0,17.3,0,23.1v0.1C0,29,4.5,33.7,10.5,33.7c3.9,0,6.3-1.4,8.4-3.6L16,27.1
		C14.4,28.6,12.9,29.5,10.6,29.5z"/>
	<polygon id="XMLID_63_" points="28.4,25 38,25 38,21 28.4,21 28.4,16.9 39.3,16.9 39.3,12.9 23.9,12.9 23.9,33.3 39.4,33.3 
		39.4,29.3 28.4,29.3 	"/>
	<polygon id="XMLID_64_" points="59,25.5 49.5,12.9 45.3,12.9 45.3,33.3 49.7,33.3 49.7,20.3 59.6,33.3 63.5,33.3 63.5,12.9 
		59,12.9 	"/>
	<polygon id="XMLID_65_" points="68,17.1 74.2,17.1 74.2,33.3 78.7,33.3 78.7,17.1 84.9,17.1 84.9,12.9 68,12.9 	"/>
	<path id="XMLID_68_" d="M106.5,19.7L106.5,19.7c0-2-0.6-3.6-1.7-4.7c-1.3-1.3-3.4-2.1-5.9-2.1h-9.3v20.4h4.5v-6.5h3.5h0.1l4.4,6.5
		h5.2l-5-7.3C104.7,25.1,106.5,23,106.5,19.7z M101.9,19.9c0,1.7-1.3,2.9-3.4,2.9h-4.5V17h4.5C100.6,17,101.9,18,101.9,19.9
		L101.9,19.9z"/>
	<path id="XMLID_71_" d="M121.9,12.6c-6.3,0-10.9,4.8-10.9,10.6v0.1c0,5.8,4.5,10.5,10.8,10.5c6.3,0,10.9-4.8,10.9-10.6v-0.1
		C132.8,17.3,128.2,12.6,121.9,12.6z M128.1,23.2c0,3.5-2.5,6.4-6.1,6.4c-3.6,0-6.2-2.9-6.2-6.4v-0.1c0-3.5,2.5-6.4,6.1-6.4
		C125.5,16.7,128.1,19.6,128.1,23.2L128.1,23.2z"/>
</g>
</svg>
